<svg xmlns="http://www.w3.org/2000/svg" viewBox="0 0 1024 1024" width="1024" height="1024"><defs><clipPath id="fourier-mono-M"><path d="M1024,512C1024,583.1 1023.6,678.5 1022.7,725.3C1021.8,772 1020.6,773.4 1018.8,792.7C1017.1,811.9 1014.9,826.4 1012.3,840.7C1009.7,855 1006.6,867.1 1003.1,878.6C999.5,890.1 995.5,900.2 991,909.8C986.5,919.3 981.5,927.8 976,935.8C970.4,943.8 964.4,951 957.7,957.7C951,964.4 943.8,970.4 935.8,976C927.8,981.5 919.3,986.5 909.8,991C900.2,995.5 890.1,999.5 878.6,1003.1C867.1,1006.6 855,1009.7 840.7,1012.3C826.4,1014.9 811.9,1017.1 792.7,1018.8C773.4,1020.6 772,1021.8 725.3,1022.7C678.5,1023.6 583.1,1024 512,1024C440.9,1024 345.5,1023.6 298.7,1022.7C252,1021.8 250.6,1020.6 231.3,1018.8C212.1,1017.1 197.6,1014.9 183.3,1012.3C169,1009.7 156.9,1006.6 145.4,1003.1C133.9,999.5 123.8,995.5 114.2,991C104.7,986.5 96.2,981.5 88.2,976C80.2,970.4 73,964.4 66.3,957.7C59.6,951 53.6,943.8 48,935.8C42.5,927.8 37.5,919.3 33,909.8C28.5,900.2 24.5,890.1 20.9,878.6C17.4,867.1 14.3,855 11.7,840.7C9.1,826.4 6.9,811.9 5.2,792.7C3.4,773.4 2.2,772 1.3,725.3C0.4,678.5 0,583.1 0,512C0,440.9 0.4,345.5 1.3,298.7C2.2,252 3.4,250.6 5.2,231.3C6.9,212.1 9.1,197.6 11.7,183.3C14.3,169 17.4,156.9 20.9,145.4C24.5,133.9 28.5,123.8 33,114.2C37.5,104.7 42.5,96.2 48,88.2C53.6,80.2 59.6,73 66.3,66.3C73,59.6 80.2,53.6 88.2,48C96.2,42.5 104.7,37.5 114.2,33C123.8,28.5 133.9,24.5 145.4,20.9C156.9,17.4 169,14.3 183.3,11.7C197.6,9.1 212.1,6.9 231.3,5.2C250.6,3.4 252,2.2 298.7,1.3C345.5,0.4 440.9,0 512,0C583.1,0 678.5,0.4 725.3,1.3C772,2.2 773.4,3.4 792.7,5.2C811.9,6.9 826.4,9.1 840.7,11.7C855,14.3 867.1,17.4 878.6,20.9C890.1,24.5 900.2,28.5 909.8,33C919.3,37.5 927.8,42.5 935.8,48C943.8,53.6 951,59.6 957.7,66.3C964.4,73 970.4,80.2 976,88.2C981.5,96.2 986.5,104.7 991,114.2C995.5,123.8 999.5,133.9 1003.1,145.4C1006.6,156.9 1009.7,169 1012.3,183.3C1014.9,197.6 1017.1,212.1 1018.8,231.3C1020.6,250.6 1021.8,252 1022.7,298.7C1023.6,345.5 1024,440.9 1024,512Z"/></clipPath><clipPath id="fourier-mono-DISC"><circle cx="512" cy="512" r="404"/></clipPath></defs><g clip-path="url(#fourier-mono-M)"><rect x="0" y="0" width="1024" height="1024" fill="#000000"/><g><path d="M76,557L78,551.4L80,545.8L82,540.2L84,534.5L86,528.9L88,523.3L90,517.6L92,512L94,506.4L96,500.7L98,495.1L100,489.5L102,483.8L104,478.2L106,472.6L108,467L110,461.4L112,455.8L114,450.3L116,444.7L118,439.2L120,433.6L122,428.1L124,422.6L126,417.2L128,411.7L130,406.3L132,400.9L134,395.5L136,390.2L138,384.9L140,379.6L142,374.3L144,369.1L146,363.9L148,358.7L150,353.6L152,348.5L154,343.4L156,338.4L158,333.4L160,328.5L162,323.6L164,318.7L166,313.9L168,309.1L170,304.4L172,299.7L174,295.1L176,290.5L178,285.9L180,281.5L182,277L184,272.6L186,268.3L188,264L190,259.8L192,255.7L194,251.6L196,247.5L198,243.5L200,239.6L202,235.7L204,231.9L206,228.2L208,224.5L210,220.9L212,217.3L214,213.9L216,210.4L218,207.1L220,203.8L222,200.6L224,197.5L226,194.4L228,191.4L230,188.5L232,185.6L234,182.8L236,180.1L238,177.5L240,174.9L242,172.4L244,170L246,167.7L248,165.4L250,163.3L252,161.2L254,159.2L256,157.2L258,155.3L260,153.6L262,151.9L264,150.2L266,148.7L268,147.2L270,145.9L272,144.6L274,143.4L276,142.2L278,141.2L280,140.2L282,139.3L284,138.5L286,137.8L288,137.2L290,136.6L292,136.2L294,135.8L296,135.5L298,135.3L300,135.2L302,135.1L304,135.2L306,135.3L308,135.5L310,135.8L312,136.2L314,136.6L316,137.2L318,137.8L320,138.5L322,139.3L324,140.2L326,141.2L328,142.2L330,143.4L332,144.6L334,145.9L336,147.2L338,148.7L340,150.2L342,151.9L344,153.6L346,155.3L348,157.2L350,159.2L352,161.2L354,163.3L356,165.4L358,167.7L360,170L362,172.4L364,174.9L366,177.5L368,180.1L370,182.8L372,185.6L374,188.5L376,191.4L378,194.4L380,197.5L382,200.6L384,203.8L386,207.1L388,210.4L390,213.9L392,217.3L394,220.9L396,224.5L398,228.2L400,231.9L402,235.7L404,239.6L406,243.5L408,247.5L410,251.6L412,255.7L414,259.8L416,264L418,268.3L420,272.6L422,277L424,281.5L426,285.9L428,290.5L430,295.1L432,299.7L434,304.4L436,309.1L438,313.9L440,318.7L442,323.6L444,328.5L446,333.4L448,338.4L450,343.4L452,348.5L454,353.6L456,358.7L458,363.9L460,369.1L462,374.3L464,379.6L466,384.9L468,390.2L470,395.5L472,400.9L474,406.3L476,411.7L478,417.2L480,422.6L482,428.1L484,433.6L486,439.2L488,444.7L490,450.3L492,455.8L494,461.4L496,467L498,472.6L500,478.2L502,483.8L504,489.5L506,495.1L508,500.7L510,506.4L512,512L514,517.6L516,523.3L518,528.9L520,534.5L522,540.2L524,545.8L526,551.4L528,557L530,562.6L532,568.2L534,573.7L536,579.3L538,584.8L540,590.4L542,595.9L544,601.4L546,606.8L548,612.3L550,617.7L552,623.1L554,628.5L556,633.8L558,639.1L560,644.4L562,649.7L564,654.9L566,660.1L568,665.3L570,670.4L572,675.5L574,680.6L576,685.6L578,690.6L580,695.5L582,700.4L584,705.3L586,710.1L588,714.9L590,719.6L592,724.3L594,728.9L596,733.5L598,738.1L600,742.5L602,747L604,751.4L606,755.7L608,760L610,764.2L612,768.3L614,772.4L616,776.5L618,780.5L620,784.4L622,788.3L624,792.1L626,795.8L628,799.5L630,803.1L632,806.7L634,810.1L636,813.6L638,816.9L640,820.2L642,823.4L644,826.5L646,829.6L648,832.6L650,835.5L652,838.4L654,841.2L656,843.9L658,846.5L660,849.1L662,851.6L664,854L666,856.3L668,858.6L670,860.7L672,862.8L674,864.8L676,866.8L678,868.7L680,870.4L682,872.1L684,873.8L686,875.3L688,876.8L690,878.1L692,879.4L694,880.6L696,881.8L698,882.8L700,883.8L702,884.7L704,885.5L706,886.2L708,886.8L710,887.4L712,887.8L714,888.2L716,888.5L718,888.7L720,888.8L722,888.9L724,888.8L726,888.7L728,888.5L730,888.2L732,887.8L734,887.4L736,886.8L738,886.2L740,885.5L742,884.7L744,883.8L746,882.8L748,881.8L750,880.6L752,879.4L754,878.1L756,876.8L758,875.3L760,873.8L762,872.1L764,870.4L766,868.7L768,866.8L770,864.8L772,862.8L774,860.7L776,858.6L778,856.3L780,854L782,851.6L784,849.1L786,846.5L788,843.9L790,841.2L792,838.4L794,835.5L796,832.6L798,829.6L800,826.5L802,823.4L804,820.2L806,816.9L808,813.6L810,810.1L812,806.7L814,803.1L816,799.5L818,795.8L820,792.1L822,788.3L824,784.4L826,780.5L828,776.5L830,772.4L832,768.3L834,764.2L836,760L838,755.7L840,751.4L842,747L844,742.5L846,738.1L848,733.5L850,728.9L852,724.3L854,719.6L856,714.9L858,710.1L860,705.3L862,700.4L864,695.5L866,690.6L868,685.6L870,680.6L872,675.5L874,670.4L876,665.3L878,660.1L880,654.9L882,649.7L884,644.4L886,639.1L888,633.8L890,628.5L892,623.1L894,617.7L896,612.3L898,606.8L900,601.4L902,595.9L904,590.4L906,584.8L908,579.3L910,573.7L912,568.2L914,562.6L916,557L918,551.4L920,545.8L922,540.2L924,534.5L926,528.9L928,523.3L930,517.6L932,512L934,506.4L936,500.7L938,495.1L940,489.5L942,483.8L944,478.2L946,472.6L948,467" fill="none" stroke="#6E6E6E" stroke-width="20" stroke-linecap="round" stroke-linejoin="round"/><path d="M76,643.6L78,627.9L80,611.9L82,595.7L84,579.2L86,562.5L88,545.8L90,528.9L92,512L94,495.1L96,478.2L98,461.5L100,444.8L102,428.3L104,412.1L106,396.1L108,380.4L110,365L112,350.1L114,335.5L116,321.3L118,307.7L120,294.5L122,281.9L124,269.8L126,258.3L128,247.4L130,237.2L132,227.5L134,218.5L136,210.2L138,202.5L140,195.5L142,189.1L144,183.4L146,178.4L148,174L150,170.2L152,167.1L154,164.6L156,162.6L158,161.3L160,160.5L162,160.2L164,160.5L166,161.2L168,162.4L170,164L172,166L174,168.3L176,171L178,174L180,177.2L182,180.6L184,184.2L186,188L188,191.9L190,195.9L192,199.9L194,203.9L196,208L198,212L200,215.9L202,219.7L204,223.4L206,226.9L208,230.2L210,233.4L212,236.3L214,239L216,241.5L218,243.7L220,245.6L222,247.2L224,248.5L226,249.6L228,250.3L230,250.7L232,250.9L234,250.7L236,250.3L238,249.6L240,248.6L242,247.4L244,245.9L246,244.2L248,242.3L250,240.2L252,237.9L254,235.5L256,232.9L258,230.2L260,227.4L262,224.6L264,221.7L266,218.7L268,215.8L270,212.9L272,210.1L274,207.3L276,204.6L278,202L280,199.6L282,197.3L284,195.1L286,193.2L288,191.4L290,189.8L292,188.5L294,187.4L296,186.5L298,185.9L300,185.5L302,185.4L304,185.5L306,185.9L308,186.5L310,187.4L312,188.5L314,189.8L316,191.4L318,193.2L320,195.1L322,197.3L324,199.6L326,202L328,204.6L330,207.3L332,210.1L334,212.9L336,215.8L338,218.7L340,221.7L342,224.6L344,227.4L346,230.2L348,232.9L350,235.5L352,237.9L354,240.2L356,242.3L358,244.2L360,245.9L362,247.4L364,248.6L366,249.6L368,250.3L370,250.7L372,250.9L374,250.7L376,250.3L378,249.6L380,248.5L382,247.2L384,245.6L386,243.7L388,241.5L390,239L392,236.3L394,233.4L396,230.2L398,226.9L400,223.4L402,219.7L404,215.9L406,212L408,208L410,203.9L412,199.9L414,195.9L416,191.9L418,188L420,184.2L422,180.6L424,177.2L426,174L428,171L430,168.3L432,166L434,164L436,162.4L438,161.2L440,160.5L442,160.2L444,160.5L446,161.3L448,162.6L450,164.6L452,167.1L454,170.2L456,174L458,178.4L460,183.4L462,189.1L464,195.5L466,202.5L468,210.2L470,218.5L472,227.5L474,237.2L476,247.4L478,258.3L480,269.8L482,281.9L484,294.5L486,307.7L488,321.3L490,335.5L492,350.1L494,365L496,380.4L498,396.1L500,412.1L502,428.3L504,444.8L506,461.5L508,478.2L510,495.1L512,512L514,528.9L516,545.8L518,562.5L520,579.2L522,595.7L524,611.9L526,627.9L528,643.6L530,659L532,673.9L534,688.5L536,702.7L538,716.3L540,729.5L542,742.1L544,754.2L546,765.7L548,776.6L550,786.8L552,796.5L554,805.5L556,813.8L558,821.5L560,828.5L562,834.9L564,840.6L566,845.6L568,850L570,853.8L572,856.9L574,859.4L576,861.4L578,862.7L580,863.5L582,863.8L584,863.5L586,862.8L588,861.6L590,860L592,858L594,855.7L596,853L598,850L600,846.8L602,843.4L604,839.8L606,836L608,832.1L610,828.1L612,824.1L614,820.1L616,816L618,812L620,808.1L622,804.3L624,800.6L626,797.1L628,793.8L630,790.6L632,787.7L634,785L636,782.5L638,780.3L640,778.4L642,776.8L644,775.5L646,774.4L648,773.7L650,773.3L652,773.1L654,773.3L656,773.7L658,774.4L660,775.4L662,776.6L664,778.1L666,779.8L668,781.7L670,783.8L672,786.1L674,788.5L676,791.1L678,793.8L680,796.6L682,799.4L684,802.3L686,805.3L688,808.2L690,811.1L692,813.9L694,816.7L696,819.4L698,822L700,824.4L702,826.7L704,828.9L706,830.8L708,832.6L710,834.2L712,835.5L714,836.6L716,837.5L718,838.1L720,838.5L722,838.6L724,838.5L726,838.1L728,837.5L730,836.6L732,835.5L734,834.2L736,832.6L738,830.8L740,828.9L742,826.7L744,824.4L746,822L748,819.4L750,816.7L752,813.9L754,811.1L756,808.2L758,805.3L760,802.3L762,799.4L764,796.6L766,793.8L768,791.1L770,788.5L772,786.1L774,783.8L776,781.7L778,779.8L780,778.1L782,776.6L784,775.4L786,774.4L788,773.7L790,773.3L792,773.1L794,773.3L796,773.7L798,774.4L800,775.5L802,776.8L804,778.4L806,780.3L808,782.5L810,785L812,787.7L814,790.6L816,793.8L818,797.1L820,800.6L822,804.3L824,808.1L826,812L828,816L830,820.1L832,824.1L834,828.1L836,832.1L838,836L840,839.8L842,843.4L844,846.8L846,850L848,853L850,855.7L852,858L854,860L856,861.6L858,862.8L860,863.5L862,863.8L864,863.5L866,862.7L868,861.4L870,859.4L872,856.9L874,853.8L876,850L878,845.6L880,840.6L882,834.9L884,828.5L886,821.5L888,813.8L890,805.5L892,796.5L894,786.8L896,776.6L898,765.7L900,754.2L902,742.1L904,729.5L906,716.3L908,702.7L910,688.5L912,673.9L914,659L916,643.6L918,627.9L920,611.9L922,595.7L924,579.2L926,562.5L928,545.8L930,528.9L932,512L934,495.1L936,478.2L938,461.5L940,444.8L942,428.3L944,412.1L946,396.1L948,380.4" fill="none" stroke="#B0B0B0" stroke-width="26" stroke-linecap="round" stroke-linejoin="round"/></g><g><path d="M76,849.1L78,859.8L80,858.8L82,842L84,807L86,753.5L88,683.5L90,601.1L92,512L94,422.9L96,340.5L98,270.5L100,217L102,182L104,165.2L106,164.2L108,174.9L110,192.5L112,211.9L114,228.9L116,240.4L118,244.9L120,242.5L122,234.5L124,223.5L126,212.1L128,202.8L130,197.2L132,196.3L134,199.8L136,206.6L138,214.8L140,222.7L142,228.5L144,231.1L146,230.2L148,226.3L150,220.4L152,213.8L154,208.2L156,204.5L158,203.7L160,205.5L162,209.6L164,214.9L166,220.2L168,224.3L170,226.4L172,226.1L174,223.6L176,219.5L178,214.8L180,210.6L182,207.7L184,206.8L186,207.9L188,210.8L190,214.8L192,218.9L194,222.2L196,224.1L198,224.1L200,222.3L202,219.1L204,215.4L206,211.9L208,209.4L210,208.4L212,209.1L214,211.4L216,214.6L218,218.1L220,221L222,222.8L224,223L226,221.6L228,219L230,215.8L232,212.7L234,210.4L236,209.4L238,209.8L240,211.7L242,214.5L244,217.5L246,220.2L248,222L250,222.3L252,221.3L254,219L256,216.2L258,213.3L260,211L262,209.9L264,210.2L266,211.7L268,214.2L270,217.1L272,219.7L274,221.5L276,222L278,221.1L280,219.2L282,216.5L284,213.7L286,211.4L288,210.2L290,210.3L292,211.7L294,214L296,216.8L298,219.4L300,221.2L302,221.9L304,221.2L306,219.4L308,216.8L310,214L312,211.7L314,210.3L316,210.2L318,211.4L320,213.7L322,216.5L324,219.2L326,221.1L328,222L330,221.5L332,219.7L334,217.1L336,214.2L338,211.7L340,210.2L342,209.9L344,211L346,213.3L348,216.2L350,219L352,221.3L354,222.3L356,222L358,220.2L360,217.5L362,214.5L364,211.7L366,209.8L368,209.4L370,210.4L372,212.7L374,215.8L376,219L378,221.6L380,223L382,222.8L384,221L386,218.1L388,214.6L390,211.4L392,209.1L394,208.4L396,209.4L398,211.9L400,215.4L402,219.1L404,222.3L406,224.1L408,224.1L410,222.2L412,218.9L414,214.8L416,210.8L418,207.9L420,206.8L422,207.7L424,210.6L426,214.8L428,219.5L430,223.6L432,226.1L434,226.4L436,224.3L438,220.2L440,214.9L442,209.6L444,205.5L446,203.7L448,204.5L450,208.2L452,213.8L454,220.4L456,226.3L458,230.2L460,231.1L462,228.5L464,222.7L466,214.8L468,206.6L470,199.8L472,196.3L474,197.2L476,202.8L478,212.1L480,223.5L482,234.5L484,242.5L486,244.9L488,240.4L490,228.9L492,211.9L494,192.5L496,174.9L498,164.2L500,165.2L502,182L504,217L506,270.5L508,340.5L510,422.9L512,512L514,601.1L516,683.5L518,753.5L520,807L522,842L524,858.8L526,859.8L528,849.1L530,831.5L532,812.1L534,795.1L536,783.6L538,779.1L540,781.5L542,789.5L544,800.5L546,811.9L548,821.2L550,826.8L552,827.7L554,824.2L556,817.4L558,809.2L560,801.3L562,795.5L564,792.9L566,793.8L568,797.7L570,803.6L572,810.2L574,815.8L576,819.5L578,820.3L580,818.5L582,814.4L584,809.1L586,803.8L588,799.7L590,797.6L592,797.9L594,800.4L596,804.5L598,809.2L600,813.4L602,816.3L604,817.2L606,816.1L608,813.2L610,809.2L612,805.1L614,801.8L616,799.9L618,799.9L620,801.7L622,804.9L624,808.6L626,812.1L628,814.6L630,815.6L632,814.9L634,812.6L636,809.4L638,805.9L640,803L642,801.2L644,801L646,802.4L648,805L650,808.2L652,811.3L654,813.6L656,814.6L658,814.2L660,812.3L662,809.5L664,806.5L666,803.8L668,802L670,801.7L672,802.7L674,805L676,807.8L678,810.7L680,813L682,814.1L684,813.8L686,812.3L688,809.8L690,806.9L692,804.3L694,802.5L696,802L698,802.9L700,804.8L702,807.5L704,810.3L706,812.6L708,813.8L710,813.7L712,812.3L714,810L716,807.2L718,804.6L720,802.8L722,802.1L724,802.8L726,804.6L728,807.2L730,810L732,812.3L734,813.7L736,813.8L738,812.6L740,810.3L742,807.5L744,804.8L746,802.9L748,802L750,802.5L752,804.3L754,806.9L756,809.8L758,812.3L760,813.8L762,814.1L764,813L766,810.7L768,807.8L770,805L772,802.7L774,801.7L776,802L778,803.8L780,806.5L782,809.5L784,812.3L786,814.2L788,814.6L790,813.6L792,811.3L794,808.2L796,805L798,802.4L800,801L802,801.2L804,803L806,805.9L808,809.4L810,812.6L812,814.9L814,815.6L816,814.6L818,812.1L820,808.6L822,804.9L824,801.7L826,799.9L828,799.9L830,801.8L832,805.1L834,809.2L836,813.2L838,816.1L840,817.2L842,816.3L844,813.4L846,809.2L848,804.5L850,800.4L852,797.9L854,797.6L856,799.7L858,803.8L860,809.1L862,814.4L864,818.5L866,820.3L868,819.5L870,815.8L872,810.2L874,803.6L876,797.7L878,793.8L880,792.9L882,795.5L884,801.3L886,809.2L888,817.4L890,824.2L892,827.7L894,826.8L896,821.2L898,811.9L900,800.5L902,789.5L904,781.5L906,779.1L908,783.6L910,795.1L912,812.1L914,831.5L916,849.1L918,859.8L920,858.8L922,842L924,807L926,753.5L928,683.5L930,601.1L932,512L934,422.9L936,340.5L938,270.5L940,217L942,182L944,165.2L946,164.2L948,174.9" fill="none" stroke="#FFFFFF" stroke-width="42" stroke-linecap="round" stroke-linejoin="round"/></g></g></svg>