<svg xmlns="http://www.w3.org/2000/svg" viewBox="0 0 1024 1024" width="1024" height="1024"><defs><clipPath id="loop-fg-DISC"><circle cx="512" cy="512" r="404"/></clipPath><linearGradient id="loop-fg-BG" gradientUnits="userSpaceOnUse" x1="0" y1="0" x2="358" y2="1024"><stop offset="0" stop-color="#3A2C93"/><stop offset="1" stop-color="#100C2E"/></linearGradient><linearGradient id="loop-fg-GRAD" x1="0.05" y1="0.1" x2="0.95" y2="0.9"><stop offset="0" stop-color="#8B7BFF"/><stop offset="0.55" stop-color="#FF6A5A"/><stop offset="1" stop-color="#FFB43D"/></linearGradient></defs><path d="M512,512L512,507.6L512,503.3L512,498.9L512,494.6L512,490.2L512,485.9L511.9,481.5L511.9,477.2L511.9,472.8L511.8,468.4L511.8,464.1L511.7,459.7L511.6,455.3L511.5,450.9L511.4,446.5L511.2,442.1L511.1,437.7L510.9,433.3L510.7,428.9L510.5,424.5L510.2,420.1L510,415.7L509.7,411.2L509.4,406.8L509,402.3L508.6,397.9L508.2,393.4L507.8,389L507.3,384.5L506.8,380L506.2,375.5L505.6,371L505,366.5L504.3,362L503.6,357.5L502.8,353L502,348.4L501.2,343.9L500.2,339.4L499.3,334.8L498.3,330.3L497.2,325.7L496,321.2L494.9,316.6L493.6,312.1L492.3,307.5L490.9,303L489.5,298.4L487.9,293.9L486.3,289.3L484.7,284.8L482.9,280.3L481.1,275.8L479.2,271.2L477.3,266.8L475.2,262.3L473.1,257.8L470.8,253.4L468.5,249L466.1,244.6L463.6,240.2L461,235.8L458.3,231.5L455.6,227.3L452.7,223L449.7,218.8L446.6,214.7L443.4,210.6L440.1,206.5L436.7,202.5L433.2,198.6L429.6,194.7L425.9,190.9L422.1,187.2L418.2,183.5L414.1,180L410,176.5L405.7,173.1L401.3,169.8L396.9,166.6L392.3,163.5L387.6,160.6L382.8,157.7L377.9,155L373,152.4L367.9,150L362.7,147.7L357.4,145.5L352.1,143.5L346.7,141.7L341.2,140L335.6,138.5L329.9,137.2L324.2,136L318.5,135.1L312.6,134.3L306.8,133.8L300.9,133.4L295,133.2L289,133.3L283,133.5L277.1,134L271.1,134.7L265.2,135.6L259.3,136.7L253.4,138.1L247.5,139.7L241.7,141.5L236,143.5L230.3,145.7L224.7,148.2L219.2,150.9L213.8,153.8L208.5,156.9L203.4,160.2L198.3,163.7L193.4,167.4L188.7,171.3L184.1,175.4L179.7,179.7L175.4,184.1L171.3,188.7L167.4,193.4L163.7,198.3L160.2,203.4L156.9,208.5L153.8,213.8L150.9,219.2L148.2,224.7L145.7,230.3L143.5,236L141.5,241.7L139.7,247.5L138.1,253.4L136.7,259.3L135.6,265.2L134.7,271.1L134,277.1L133.5,283L133.3,289L133.2,295L133.4,300.9L133.8,306.8L134.3,312.6L135.1,318.5L136,324.2L137.2,329.9L138.5,335.6L140,341.2L141.7,346.7L143.5,352.1L145.5,357.4L147.7,362.7L150,367.9L152.4,373L155,377.9L157.7,382.8L160.6,387.6L163.5,392.3L166.6,396.9L169.8,401.3L173.1,405.7L176.5,410L180,414.1L183.5,418.2L187.2,422.1L190.9,425.9L194.7,429.6L198.6,433.2L202.5,436.7L206.5,440.1L210.6,443.4L214.7,446.6L218.8,449.7L223,452.7L227.3,455.6L231.5,458.3L235.8,461L240.2,463.6L244.6,466.1L249,468.5L253.4,470.8L257.8,473.1L262.3,475.2L266.8,477.3L271.2,479.2L275.8,481.1L280.3,482.9L284.8,484.7L289.3,486.3L293.9,487.9L298.4,489.5L303,490.9L307.5,492.3L312.1,493.6L316.6,494.9L321.2,496L325.7,497.2L330.3,498.3L334.8,499.3L339.4,500.2L343.9,501.2L348.4,502L353,502.8L357.5,503.6L362,504.3L366.5,505L371,505.6L375.5,506.2L380,506.8L384.5,507.3L389,507.8L393.4,508.2L397.9,508.6L402.3,509L406.8,509.4L411.2,509.7L415.7,510L420.1,510.2L424.5,510.5L428.9,510.7L433.3,510.9L437.7,511.1L442.1,511.2L446.5,511.4L450.9,511.5L455.3,511.6L459.7,511.7L464.1,511.8L468.4,511.8L472.8,511.9L477.2,511.9L481.5,511.9L485.9,512L490.2,512L494.6,512L498.9,512L503.3,512L507.6,512L512,512" fill="none" stroke="url(#loop-fg-BG)" stroke-width="134" stroke-linecap="round" stroke-linejoin="round"/><path d="M512,512L512,507.6L512,503.3L512,498.9L512,494.6L512,490.2L512,485.9L511.9,481.5L511.9,477.2L511.9,472.8L511.8,468.4L511.8,464.1L511.7,459.7L511.6,455.3L511.5,450.9L511.4,446.5L511.2,442.1L511.1,437.7L510.9,433.3L510.7,428.9L510.5,424.5L510.2,420.1L510,415.7L509.7,411.2L509.4,406.8L509,402.3L508.6,397.9L508.2,393.4L507.8,389L507.3,384.5L506.8,380L506.2,375.5L505.6,371L505,366.5L504.3,362L503.6,357.5L502.8,353L502,348.4L501.2,343.9L500.2,339.4L499.3,334.8L498.3,330.3L497.2,325.7L496,321.2L494.9,316.6L493.6,312.1L492.3,307.5L490.9,303L489.5,298.4L487.9,293.9L486.3,289.3L484.7,284.8L482.9,280.3L481.1,275.8L479.2,271.2L477.3,266.8L475.2,262.3L473.1,257.8L470.8,253.4L468.5,249L466.1,244.6L463.6,240.2L461,235.8L458.3,231.5L455.6,227.3L452.7,223L449.7,218.8L446.6,214.7L443.4,210.6L440.1,206.5L436.7,202.5L433.2,198.6L429.6,194.7L425.9,190.9L422.1,187.2L418.2,183.5L414.1,180L410,176.5L405.7,173.1L401.3,169.8L396.9,166.6L392.3,163.5L387.6,160.6L382.8,157.7L377.9,155L373,152.4L367.9,150L362.7,147.7L357.4,145.5L352.1,143.5L346.7,141.7L341.2,140L335.6,138.5L329.9,137.2L324.2,136L318.5,135.1L312.6,134.3L306.8,133.8L300.9,133.4L295,133.2L289,133.3L283,133.5L277.1,134L271.1,134.7L265.2,135.6L259.3,136.7L253.4,138.1L247.5,139.7L241.7,141.5L236,143.5L230.3,145.7L224.7,148.2L219.2,150.9L213.8,153.8L208.5,156.9L203.4,160.2L198.3,163.7L193.4,167.4L188.7,171.3L184.1,175.4L179.7,179.7L175.4,184.1L171.3,188.7L167.4,193.4L163.7,198.3L160.2,203.4L156.9,208.5L153.8,213.8L150.9,219.2L148.2,224.7L145.7,230.3L143.5,236L141.5,241.7L139.7,247.5L138.1,253.4L136.7,259.3L135.6,265.2L134.7,271.1L134,277.1L133.5,283L133.3,289L133.2,295L133.4,300.9L133.8,306.8L134.3,312.6L135.1,318.5L136,324.2L137.2,329.9L138.5,335.6L140,341.2L141.7,346.7L143.5,352.1L145.5,357.4L147.7,362.7L150,367.9L152.4,373L155,377.9L157.7,382.8L160.6,387.6L163.5,392.3L166.6,396.9L169.8,401.3L173.1,405.7L176.5,410L180,414.1L183.5,418.2L187.2,422.1L190.9,425.9L194.7,429.6L198.6,433.2L202.5,436.7L206.5,440.1L210.6,443.4L214.7,446.6L218.8,449.7L223,452.7L227.3,455.6L231.5,458.3L235.8,461L240.2,463.6L244.6,466.1L249,468.5L253.4,470.8L257.8,473.1L262.3,475.2L266.8,477.3L271.2,479.2L275.8,481.1L280.3,482.9L284.8,484.7L289.3,486.3L293.9,487.9L298.4,489.5L303,490.9L307.5,492.3L312.1,493.6L316.6,494.9L321.2,496L325.7,497.2L330.3,498.3L334.8,499.3L339.4,500.2L343.9,501.2L348.4,502L353,502.8L357.5,503.6L362,504.3L366.5,505L371,505.6L375.5,506.2L380,506.8L384.5,507.3L389,507.8L393.4,508.2L397.9,508.6L402.3,509L406.8,509.4L411.2,509.7L415.7,510L420.1,510.2L424.5,510.5L428.9,510.7L433.3,510.9L437.7,511.1L442.1,511.2L446.5,511.4L450.9,511.5L455.3,511.6L459.7,511.7L464.1,511.8L468.4,511.8L472.8,511.9L477.2,511.9L481.5,511.9L485.9,512L490.2,512L494.6,512L498.9,512L503.3,512L507.6,512L512,512" fill="none" stroke="#FFB43D" stroke-width="94" stroke-linecap="round" stroke-linejoin="round"/></svg>