<svg xmlns="http://www.w3.org/2000/svg" viewBox="0 0 1024 1024" width="1024" height="1024"><defs><clipPath id="phyllotaxis-fg-DISC"><circle cx="512" cy="512" r="404"/></clipPath><linearGradient id="phyllotaxis-fg-BG" gradientUnits="userSpaceOnUse" x1="0" y1="0" x2="358" y2="1024"><stop offset="0" stop-color="#3A2C93"/><stop offset="1" stop-color="#100C2E"/></linearGradient><linearGradient id="phyllotaxis-fg-GRAD" x1="0.05" y1="0.1" x2="0.95" y2="0.9"><stop offset="0" stop-color="#8B7BFF"/><stop offset="0.55" stop-color="#FF6A5A"/><stop offset="1" stop-color="#FFB43D"/></linearGradient></defs><circle cx="725.9" cy="681" r="15.6" fill="#C6989C"/><circle cx="238.9" cy="531.9" r="15.7" fill="#C7989B"/><circle cx="700.8" cy="311.9" r="15.7" fill="#C7999B"/><circle cx="508" cy="788.4" r="15.8" fill="#C8999A"/><circle cx="327.4" cy="304.5" r="15.8" fill="#C89999"/><circle cx="789.5" cy="540.5" r="15.9" fill="#C99998"/><circle cx="287.1" cy="679.2" r="16" fill="#C99997"/><circle cx="565.1" cy="235.5" r="16" fill="#C99A97"/><circle cx="660.3" cy="752.8" r="16.1" fill="#CA9A96"/><circle cx="238.8" cy="434.3" r="16.1" fill="#CA9A95"/><circle cx="767" cy="384.2" r="16.2" fill="#CB9A94"/><circle cx="409.8" cy="779.6" r="16.2" fill="#CB9B93"/><circle cx="406.1" cy="244.5" r="16.3" fill="#CC9B93"/><circle cx="771.9" cy="638.3" r="16.3" fill="#CC9B92"/><circle cx="233.9" cy="594.8" r="16.4" fill="#CD9B91"/><circle cx="661.8" cy="262.1" r="16.5" fill="#CD9C90"/><circle cx="570.6" cy="798.7" r="16.5" fill="#CE9C8F"/><circle cx="274.1" cy="339.5" r="16.6" fill="#CE9C8F"/><circle cx="805.1" cy="478.4" r="16.6" fill="#CF9C8E"/><circle cx="317.8" cy="735.7" r="16.7" fill="#CF9C8D"/><circle cx="504.1" cy="214.7" r="16.7" fill="#D09D8C"/><circle cx="719.5" cy="726.7" r="16.8" fill="#D09D8C"/><circle cx="212.8" cy="493.8" r="16.8" fill="#D19D8B"/><circle cx="745.9" cy="322.6" r="16.9" fill="#D19D8A"/><circle cx="467.3" cy="810.8" r="16.9" fill="#D19E89"/><circle cx="342.4" cy="260.5" r="17" fill="#D29E88"/><circle cx="808" cy="583.2" r="17.1" fill="#D29E88"/><circle cx="244.6" cy="660" r="17.1" fill="#D39E87"/><circle cx="609.5" cy="221.1" r="17.2" fill="#D39F86"/><circle cx="637" cy="793.4" r="17.2" fill="#D49F85"/><circle cx="228.7" cy="388.5" r="17.3" fill="#D49F85"/><circle cx="805.4" cy="411.3" r="17.3" fill="#D59F84"/><circle cx="363.1" cy="785.5" r="17.4" fill="#D59F83"/><circle cx="436.8" cy="208.7" r="17.4" fill="#D6A082"/><circle cx="773.3" cy="685.5" r="17.5" fill="#D6A081"/><circle cx="201.1" cy="560.8" r="17.5" fill="#D7A081"/><circle cx="709" cy="265.1" r="17.6" fill="#D7A080"/><circle cx="533.5" cy="828.2" r="17.6" fill="#D7A17F"/><circle cx="281.7" cy="292.6" r="17.7" fill="#D8A17E"/><circle cx="831.1" cy="518.2" r="17.7" fill="#D8A17E"/><circle cx="271.6" cy="723.7" r="17.8" fill="#D9A17D"/><circle cx="546.3" cy="192.4" r="17.8" fill="#D9A17C"/><circle cx="703.2" cy="771.7" r="17.9" fill="#DAA27B"/><circle cx="194.5" cy="449.4" r="18" fill="#DAA27B"/><circle cx="789.3" cy="343.1" r="18" fill="#DBA27A"/><circle cx="421.3" cy="824.9" r="18.1" fill="#DBA279"/><circle cx="367" cy="219" r="18.1" fill="#DCA378"/><circle cx="817.8" cy="630.5" r="18.2" fill="#DCA378"/><circle cx="205.5" cy="631.6" r="18.2" fill="#DCA377"/><circle cx="657.7" cy="215.8" r="18.3" fill="#DDA376"/><circle cx="604.9" cy="829.9" r="18.3" fill="#DDA375"/><circle cx="227.9" cy="339.8" r="18.4" fill="#DEA475"/><circle cx="838.9" cy="446.8" r="18.4" fill="#DEA474"/><circle cx="314.4" cy="781.7" r="18.5" fill="#DFA473"/><circle cx="475.4" cy="178.6" r="18.5" fill="#DFA472"/><circle cx="765" cy="733.8" r="18.6" fill="#E0A572"/><circle cx="174.6" cy="519.4" r="18.6" fill="#E0A571"/><circle cx="756.6" cy="277.9" r="18.7" fill="#E0A570"/><circle cx="489.7" cy="850.9" r="18.7" fill="#E1A56F"/><circle cx="298.9" cy="246.2" r="18.8" fill="#E1A56F"/><circle cx="849.7" cy="564.2" r="18.8" fill="#E2A66E"/><circle cx="226.9" cy="702.2" r="18.9" fill="#E2A66D"/><circle cx="594" cy="178.2" r="18.9" fill="#E3A66C"/><circle cx="677.5" cy="814.4" r="19" fill="#E3A66C"/><circle cx="184.7" cy="400.5" r="19" fill="#E4A76B"/><circle cx="829.6" cy="372.7" r="19.1" fill="#E4A76A"/><circle cx="371.5" cy="830.2" r="19.1" fill="#E5A769"/><circle cx="400.4" cy="181.5" r="19.2" fill="#E5A769"/><circle cx="818.5" cy="680.8" r="19.2" fill="#E5A768"/><circle cx="171" cy="594.8" r="19.3" fill="#E6A867"/><circle cx="708.1" cy="219.8" r="19.3" fill="#E6A866"/><circle cx="565" cy="860.9" r="19.4" fill="#E7A866"/><circle cx="236.5" cy="289.9" r="19.4" fill="#E7A865"/><circle cx="866.2" cy="489.6" r="19.5" fill="#E8A964"/><circle cx="265.3" cy="768.5" r="19.5" fill="#E8A963"/><circle cx="520.7" cy="155.2" r="19.6" fill="#E8A963"/><circle cx="747.2" cy="781.7" r="19.6" fill="#E9A962"/><circle cx="155.4" cy="471.9" r="19.7" fill="#E9A961"/><circle cx="802.8" cy="300.1" r="19.7" fill="#EAAA60"/><circle cx="440.5" cy="865.7" r="19.8" fill="#EAAA60"/><circle cx="325.3" cy="202.1" r="19.8" fill="#EBAA5F"/><circle cx="859.9" cy="614.7" r="19.9" fill="#EBAA5E"/><circle cx="185.2" cy="671.7" r="19.9" fill="#ECAA5D"/><circle cx="645.4" cy="172.6" r="19.9" fill="#ECAB5D"/><circle cx="643.2" cy="853.3" r="20" fill="#ECAB5C"/><circle cx="183.8" cy="348.5" r="20" fill="#EDAB5B"/><circle cx="865.3" cy="410.6" r="20.1" fill="#EDAB5B"/><circle cx="319.5" cy="826.3" r="20.1" fill="#EEAC5A"/><circle cx="441.5" cy="149.3" r="20.2" fill="#EEAC59"/><circle cx="809.8" cy="732.4" r="20.2" fill="#EFAC58"/><circle cx="142.6" cy="550.7" r="20.3" fill="#EFAC58"/><circle cx="758.9" cy="233.2" r="20.3" fill="#F0AC57"/><circle cx="518.3" cy="885.3" r="20.4" fill="#F0AD56"/><circle cx="254.5" cy="240.3" r="20.4" fill="#F0AD55"/><circle cx="886.3" cy="538.5" r="20.5" fill="#F1AD55"/><circle cx="217.4" cy="745.9" r="20.5" fill="#F1AD54"/><circle cx="571.4" cy="139.6" r="20.6" fill="#F2AD53"/><circle cx="720.3" cy="827.5" r="20.6" fill="#F2AE53"/><circle cx="144.4" cy="419.8" r="20.7" fill="#F3AE52"/><circle cx="846.1" cy="331.2" r="20.7" fill="#F3AE51"/><circle cx="387.4" cy="871.9" r="20.8" fill="#F3AE50"/><circle cx="360.4" cy="161.6" r="20.8" fill="#F4AF50"/><circle cx="861.3" cy="668.3" r="20.8" fill="#F4AF4F"/><circle cx="148" cy="633" r="20.9" fill="#F5AF4E"/><circle cx="699.2" cy="176.1" r="20.9" fill="#F5AF4D"/><circle cx="601.1" cy="887" r="21" fill="#F6AF4D"/><circle cx="192.2" cy="295.2" r="21" fill="#F6B04C"/><circle cx="895.2" cy="455.7" r="21.1" fill="#F6B04B"/><circle cx="266.9" cy="813" r="21.1" fill="#F7B04B"/><circle cx="489.3" cy="123.5" r="21.2" fill="#F7B04A"/><circle cx="791.8" cy="783.8" r="21.2" fill="#F8B049"/><circle cx="121.2" cy="500.6" r="21.3" fill="#F8B148"/><circle cx="808.6" cy="255.9" r="21.3" fill="#F9B148"/><circle cx="466.2" cy="902.1" r="21.4" fill="#F9B147"/><circle cx="281.7" cy="192.7" r="21.4" fill="#F9B146"/><circle cx="898.3" cy="592.1" r="21.5" fill="#FAB146"/><circle cx="172.3" cy="714.4" r="21.5" fill="#FAB245"/><circle cx="626" cy="132.4" r="21.5" fill="#FBB244"/><circle cx="684.7" cy="869.7" r="21.6" fill="#FBB243"/><circle cx="142.2" cy="364.5" r="21.6" fill="#FCB243"/><circle cx="885.1" cy="370.6" r="21.7" fill="#FCB342"/><circle cx="332" cy="869.1" r="21.7" fill="#FCB341"/><circle cx="403.3" cy="126.3" r="21.8" fill="#FDB341"/><circle cx="853.5" cy="723.5" r="21.8" fill="#FDB340"/><circle cx="116.5" cy="586.9" r="21.9" fill="#FEB33F"/><circle cx="753.6" cy="188.9" r="21.9" fill="#FEB43E"/><circle cx="552.2" cy="914.3" r="22" fill="#FFB43E"/><circle cx="210" cy="241.9" r="22" fill="#FFB43D"/></svg>